<svg xmlns="http://www.w3.org/2000/svg" viewBox="0 0 60 51.801" width="60" height="51.801">
    <g fill="#61DAFB">
        <path id="path1" d="M44.809,42.37c-2.295.263-4.916,2.723-6.428,5.05a19.663,19.663,0,0,0-2.241,4.871c-1.225,3.928-1.54,8.079-2.521,12.075s-2.8,8.029-6.185,10.361c-4.331,2.979-10.341,2.6-14.625,5.65-1.019.725-1.981,2.057-1.333,3.126a2.723,2.723,0,0,0,1.033.866c6.9,3.967,15.043,4.938,22.7,7.105,5.024,1.423,10.222,3.407,15.317,2.262C53.8,93,56.8,91.3,59.756,89.749c2.079-1.039,4.119-2.164,6.177-3.246a11.785,11.785,0,0,0,2.513-1.52,6.108,6.108,0,0,0,1.57-2.191,15.744,15.744,0,0,0,.872-5.733q.166-7,.332-14c.093-3.944.172-7.987-1.115-11.717a12.729,12.729,0,0,0-4.691-6.387A9.048,9.048,0,0,0,63,43.785a4.927,4.927,0,0,1-1.11-.459,4.781,4.781,0,0,0-1.436-.47,12.657,12.657,0,0,0-1.986-.267c-.319-.017-.595-.121-.909-.156-.443-.049-.888-.082-1.332-.108C54.821,42.242,52,42.311,52,42.311l-3.5-.033M58.812,53.624c1.06,1.085,1.275,1.778.629,2.023a.232.232,0,0,0-.166.2.185.185,0,0,1-.161.177.411.411,0,0,0-.237.206.565.565,0,0,1-.241.241.41.41,0,0,0-.206.236.291.291,0,0,1-.209.2c-.106.027-.169.091-.169.172a.278.278,0,0,1-.175.21.691.691,0,0,0-.274.27c-.054.1-.144.191-.2.191s-.131.077-.167.171a.465.465,0,0,1-.236.236c-.094.036-.171.113-.171.172s-.09.159-.2.222a.54.54,0,0,0-.237.261.3.3,0,0,1-.2.187.291.291,0,0,0-.206.21.29.29,0,0,1-.207.211.238.238,0,0,0-.186.186.36.36,0,0,1-.187.227.69.69,0,0,0-.257.257c-.05.1-.136.174-.191.174s-.1.033-.1.073a1.075,1.075,0,0,1-.255.329c-.14.141-.668.694-1.172,1.228s-1.2,1.266-1.548,1.625l-.68.7c-.675.713-1.033.551-2.6-1.173-.243-.268-.541-.591-.663-.717a1,1,0,0,1-.221-.293c0-.034-.063-.079-.14-.1a.415.415,0,0,1-.217-.242.4.4,0,0,0-.226-.243.294.294,0,0,1-.19-.2.29.29,0,0,0-.177-.2.378.378,0,0,1-.205-.219.374.374,0,0,0-.2-.217.407.407,0,0,1-.209-.225.41.41,0,0,0-.214-.226.259.259,0,0,1-.169-.165.54.54,0,0,0-.229-.244.581.581,0,0,1-.234-.239.413.413,0,0,0-.2-.2c-.367-.167-.316-.94.085-1.3l.691-.629A2.126,2.126,0,0,1,46.4,57a.237.237,0,0,0,.161-.131c.133-.249.614-.229.614.025,0,.051.092.125.2.164a.475.475,0,0,1,.27.244c.036.1.112.173.168.173s.148.09.2.2a.536.536,0,0,0,.24.242.3.3,0,0,1,.174.194.368.368,0,0,0,.187.216.483.483,0,0,1,.214.214.508.508,0,0,0,.222.22.55.55,0,0,1,.232.236.388.388,0,0,0,.208.2.271.271,0,0,1,.17.178.492.492,0,0,0,.233.245c.107.056.2.145.2.2s.076.118.17.142c.23.058.51-.02.51-.142,0-.055.088-.144.2-.2a.492.492,0,0,0,.233-.245.278.278,0,0,1,.179-.18c.078-.02.141-.065.141-.1a6.179,6.179,0,0,1,.663-.735c.364-.37.693-.706.731-.745s.21-.205.383-.368a2.657,2.657,0,0,0,.393-.442.262.262,0,0,1,.176-.146c.054,0,.145-.092.2-.2s.15-.2.2-.2.146-.092.2-.2.147-.2.2-.2.157-.107.234-.238.187-.238.243-.238.122-.077.146-.17a.291.291,0,0,1,.2-.211.3.3,0,0,0,.2-.168.709.709,0,0,1,.236-.267.714.714,0,0,0,.238-.274.182.182,0,0,1,.143-.134c.055,0,.153-.092.216-.2s.153-.2.2-.2.13-.092.188-.2a.519.519,0,0,1,.274-.245c.093-.023.169-.079.169-.123,0-.545.672-.334,1.44.452" transform="translate(-11.265 -42.278)" fill="currentColor" fill-rule="evenodd"></path>
    </g>
</svg>